<svg width="24" height="24" viewBox="0 0 24 24" fill="none" xmlns="http://www.w3.org/2000/svg">
<path d="M15 22.25H9C6.3424 22.25 4.56492 21.6803 3.4423 20.5577C2.31968 19.4351 1.75 17.6576 1.75 15V9C1.75 6.3424 2.31968 4.56492 3.4423 3.4423C4.56492 2.31968 6.3424 1.75 9 1.75H15C17.6576 1.75 19.4351 2.31968 20.5577 3.4423C21.6803 4.56492 22.25 6.3424 22.25 9V15C22.25 17.6576 21.6803 19.4351 20.5577 20.5577C19.4351 21.6803 17.6576 22.25 15 22.25ZM9 2.25C6.65972 2.25 4.92432 2.66107 3.7927 3.7927C2.66107 4.92432 2.25 6.65972 2.25 9V15C2.25 17.3403 2.66107 19.0757 3.7927 20.2073C4.92432 21.3389 6.65972 21.75 9 21.75H15C17.3403 21.75 19.0757 21.3389 20.2073 20.2073C21.3389 19.0757 21.75 17.3403 21.75 15V9C21.75 6.65972 21.3389 4.92432 20.2073 3.7927C19.0757 2.66107 17.3403 2.25 15 2.25H9Z" fill="#292D32" stroke="#FBFCFE"/>
<path d="M9 10.25C7.75614 10.25 6.75 9.24386 6.75 8C6.75 6.75614 7.75614 5.75 9 5.75C10.2439 5.75 11.25 6.75614 11.25 8C11.25 9.24386 10.2439 10.25 9 10.25ZM9 6.25C8.03386 6.25 7.25 7.03386 7.25 8C7.25 8.96614 8.03386 9.75 9 9.75C9.96614 9.75 10.75 8.96614 10.75 8C10.75 7.03386 9.96614 6.25 9 6.25Z" fill="#292D32" stroke="#FBFCFE"/>
<path d="M2.4658 19.0927L2.46581 19.0927L2.46391 19.0899C2.38946 18.9798 2.41828 18.8242 2.53436 18.7479L2.53437 18.7479L2.53848 18.7452L7.46848 15.4352L7.46977 15.4343C8.36197 14.8312 9.6034 14.9055 10.4133 15.5888L10.7397 15.8756L10.7397 15.8757L10.7438 15.8792C11.0983 16.184 11.5572 16.3226 11.9935 16.3226C12.4287 16.3226 12.8864 16.1847 13.2373 15.8778L17.3954 12.3095L17.3955 12.3094C18.2669 11.5613 19.6607 11.559 20.5449 12.3101C20.5452 12.3104 20.5455 12.3107 20.5458 12.3109L22.1714 13.7071C22.1717 13.7074 22.172 13.7077 22.1724 13.708C22.2757 13.7989 22.29 13.9549 22.2002 14.0646C22.1085 14.1667 21.9526 14.1799 21.8435 14.089C21.8431 14.0886 21.8426 14.0883 21.8422 14.0879L20.2158 12.691C20.2157 12.6909 20.2156 12.6908 20.2155 12.6908C19.5282 12.0998 18.4014 12.0998 17.714 12.6908C17.7139 12.6908 17.7138 12.6909 17.7138 12.691L13.5542 16.2606L13.5541 16.2607C12.6833 17.0083 11.2909 17.0111 10.4066 16.2617L10.0798 15.9745L10.0799 15.9744L10.0731 15.9687C9.44006 15.432 8.4331 15.3816 7.73914 15.8562L2.82132 19.1581C2.77281 19.1862 2.71667 19.2001 2.66977 19.2001C2.58984 19.2001 2.50919 19.1578 2.4658 19.0927Z" fill="#292D32" stroke="#FBFCFE"/>
</svg>
