<svg width="24" height="24" viewBox="0 0 24 24" fill="none" xmlns="http://www.w3.org/2000/svg">
<path d="M18.7436 16.1889L18.7436 16.189C18.9845 17.6565 18.6371 19.0691 17.7413 20.1237C16.8459 21.1777 15.5102 21.75 14.0302 21.75H9.2402C7.91794 21.75 6.70153 21.2369 5.83163 20.2879C4.96306 19.3403 4.55082 18.0909 4.66195 16.7682L18.7436 16.1889ZM18.7436 16.1889C18.2038 12.907 15.0747 10.25 11.7402 10.25C8.12949 10.25 4.96366 13.1699 4.66196 16.7681L18.7436 16.1889ZM5.46931 20.6227L5.46785 20.6211C4.50618 19.5778 4.04011 18.1978 4.16833 16.7233L4.16849 16.7213C4.48696 12.881 7.88991 9.75 11.7502 9.75C15.2952 9.75 18.6676 12.6128 19.2572 16.1031C19.5343 17.7476 19.1272 19.276 18.1495 20.4358C17.1505 21.5974 15.703 22.25 14.0402 22.25H9.2502C7.7643 22.25 6.4304 21.6745 5.46931 20.6227Z" fill="#292D32" stroke="#FBFCFE"/>
<path d="M10.4702 7.75C8.95636 7.75 7.72021 6.51386 7.72021 5C7.72021 3.48614 8.95636 2.25 10.4702 2.25C11.9841 2.25 13.2202 3.48614 13.2202 5C13.2202 6.51486 11.9931 7.75 10.4702 7.75ZM10.4702 2.75C9.23407 2.75 8.22022 3.76386 8.22022 5C8.22022 6.23614 9.23407 7.25 10.4702 7.25C11.7064 7.25 12.7202 6.23614 12.7202 5C12.7202 3.76572 11.7182 2.75 10.4702 2.75Z" fill="#292D32" stroke="#FBFCFE"/>
<path d="M17.2998 8.94995C16.0559 8.94995 15.0498 7.94381 15.0498 6.69995C15.0498 5.45609 16.0559 4.44995 17.2998 4.44995C18.5437 4.44995 19.5498 5.45609 19.5498 6.69995C19.5498 7.94381 18.5437 8.94995 17.2998 8.94995ZM17.2998 4.94995C16.3337 4.94995 15.5498 5.73381 15.5498 6.69995C15.5498 7.66609 16.3337 8.44995 17.2998 8.44995C18.2659 8.44995 19.0498 7.66609 19.0498 6.69995C19.0498 5.73381 18.2659 4.94995 17.2998 4.94995Z" fill="#292D32" stroke="#FBFCFE"/>
<path d="M21 12.95C20.0361 12.95 19.25 12.1638 19.25 11.2C19.25 10.2361 20.0361 9.44995 21 9.44995C21.9639 9.44995 22.75 10.2361 22.75 11.2C22.75 12.1638 21.9639 12.95 21 12.95ZM21 9.94995C20.3139 9.94995 19.75 10.5138 19.75 11.2C19.75 11.8861 20.3139 12.45 21 12.45C21.6861 12.45 22.25 11.8861 22.25 11.2C22.25 10.5138 21.6861 9.94995 21 9.94995Z" fill="#292D32" stroke="#FBFCFE"/>
<path d="M3.97021 10.95C2.72636 10.95 1.72021 9.94381 1.72021 8.69995C1.72021 7.45609 2.72636 6.44995 3.97021 6.44995C5.21407 6.44995 6.22021 7.45609 6.22021 8.69995C6.22021 9.94381 5.21407 10.95 3.97021 10.95ZM3.97021 6.94995C3.00407 6.94995 2.22021 7.73381 2.22021 8.69995C2.22021 9.66609 3.00407 10.45 3.97021 10.45C4.93636 10.45 5.72021 9.66609 5.72021 8.69995C5.72021 7.73381 4.93636 6.94995 3.97021 6.94995Z" fill="#292D32" stroke="#FBFCFE"/>
</svg>
